<svg id="ey2wq6m3okor1" xmlns="http://www.w3.org/2000/svg" xmlns:xlink="http://www.w3.org/1999/xlink" viewBox="0 0 30 22" shape-rendering="geometricPrecision" text-rendering="geometricPrecision"><path id="ey2wq6m3okor2" d="M19,15C19.552300,15,20,15.447700,20,16L20,19C20,20.656900,18.656900,22,17,22L3,22C1.343150,22,0,20.656900,0,19L0,16C0,15.447700,0.447715,15,1,15C1.552280,15,2,15.447700,2,16L2,19C2,19.552300,2.447720,20,3,20L17,20C17.552300,20,18,19.552300,18,19L18,16C18,15.447700,18.447700,15,19,15ZM10,0C10.552300,0,11,0.447715,11,1L11,12.585000L13.292900,10.292900C13.653400,9.932410,14.220600,9.904680,14.612900,10.209700L14.707100,10.292900C15.097600,10.683400,15.097600,11.316600,14.707100,11.707100L10.707100,15.707100C10.678600,15.735600,10.648500,15.762300,10.616700,15.787200C10.609800,15.792700,10.602600,15.798200,10.595300,15.803700C10.571100,15.821500,10.546300,15.838300,10.520700,15.853900C10.508600,15.861400,10.496400,15.868500,10.484100,15.875300C10.464300,15.886200,10.443900,15.896600,10.423100,15.906300C10.406100,15.914300,10.388800,15.921800,10.371300,15.928800C10.351600,15.936700,10.331800,15.943900,10.311700,15.950500C10.296900,15.955300,10.281500,15.959900,10.266000,15.964200C10.244400,15.970200,10.222700,15.975400,10.200800,15.979800C10.183400,15.983300,10.165900,15.986400,10.148500,15.989000C10.100400,15.996200,10.050600,16,10,16L10.085200,15.996400C10.067900,15.997900,10.050600,15.998900,10.033200,15.999500L10,16C9.988870,16,9.977790,15.999800,9.966750,15.999500C9.949730,15.998900,9.931730,15.997800,9.913770,15.996300C9.892110,15.994500,9.871480,15.992000,9.851040,15.989000C9.834050,15.986400,9.816620,15.983300,9.799270,15.979800C9.777250,15.975400,9.755560,15.970200,9.734160,15.964300C9.718540,15.959900,9.703150,15.955300,9.687860,15.950300C9.668200,15.943900,9.648420,15.936700,9.628940,15.928900C9.611200,15.921800,9.593900,15.914300,9.576780,15.906300C9.556110,15.896600,9.535710,15.886200,9.515720,15.875100C9.503610,15.868500,9.491390,15.861400,9.479290,15.854000C9.453720,15.838300,9.428870,15.821500,9.404840,15.803700C9.365670,15.774700,9.328290,15.742500,9.292890,15.707100L9.383250,15.787200C9.351530,15.762300,9.321360,15.735600,9.292890,15.707100L5.292890,11.707100C4.902370,11.316600,4.902370,10.683400,5.292890,10.292900C5.683420,9.902370,6.316580,9.902370,6.707110,10.292900L9,12.585000L9,1C9,0.487164,9.386040,0.064493,9.883380,0.006728L10,0Z" fill="#000000" stroke="none" stroke-width="1"><animate attributeName="d" values="M19,15C19.552300,15,20,15.447700,20,16L20,19C20,20.656900,18.656900,22,17,22L3,22C1.343150,22,0,20.656900,0,19L0,16C0,15.447700,0.447715,15,1,15C1.552280,15,2,15.447700,2,16L2,19C2,19.552300,2.447720,20,3,20L17,20C17.552300,20,18,19.552300,18,19L18,16C18,15.447700,18.447700,15,19,15ZM10,0C10.552300,0,11,0.447715,11,1L11,12.585000L13.292900,10.292900C13.653400,9.932410,14.220600,9.904680,14.612900,10.209700L14.707100,10.292900C15.097600,10.683400,15.097600,11.316600,14.707100,11.707100L10.707100,15.707100C10.678600,15.735600,10.648500,15.762300,10.616700,15.787200C10.609800,15.792700,10.602600,15.798200,10.595300,15.803700C10.571100,15.821500,10.546300,15.838300,10.520700,15.853900C10.508600,15.861400,10.496400,15.868500,10.484100,15.875300C10.464300,15.886200,10.443900,15.896600,10.423100,15.906300C10.406100,15.914300,10.388800,15.921800,10.371300,15.928800C10.351600,15.936700,10.331800,15.943900,10.311700,15.950500C10.296900,15.955300,10.281500,15.959900,10.266000,15.964200C10.244400,15.970200,10.222700,15.975400,10.200800,15.979800C10.183400,15.983300,10.165900,15.986400,10.148500,15.989000C10.100400,15.996200,10.050600,16,10,16L10.085200,15.996400C10.067900,15.997900,10.050600,15.998900,10.033200,15.999500L10,16C9.988870,16,9.977790,15.999800,9.966750,15.999500C9.949730,15.998900,9.931730,15.997800,9.913770,15.996300C9.892110,15.994500,9.871480,15.992000,9.851040,15.989000C9.834050,15.986400,9.816620,15.983300,9.799270,15.979800C9.777250,15.975400,9.755560,15.970200,9.734160,15.964300C9.718540,15.959900,9.703150,15.955300,9.687860,15.950300C9.668200,15.943900,9.648420,15.936700,9.628940,15.928900C9.611200,15.921800,9.593900,15.914300,9.576780,15.906300C9.556110,15.896600,9.535710,15.886200,9.515720,15.875100C9.503610,15.868500,9.491390,15.861400,9.479290,15.854000C9.453720,15.838300,9.428870,15.821500,9.404840,15.803700C9.365670,15.774700,9.328290,15.742500,9.292890,15.707100L9.383250,15.787200C9.351530,15.762300,9.321360,15.735600,9.292890,15.707100L5.292890,11.707100C4.902370,11.316600,4.902370,10.683400,5.292890,10.292900C5.683420,9.902370,6.316580,9.902370,6.707110,10.292900L9,12.585000L9,1C9,0.487164,9.386040,0.064493,9.883380,0.006728L10,0Z;M19,15C19.552300,15,20,15.447700,20,16L20,19C20,20.656900,18.656900,22,17,22L3,22C1.343150,22,0,20.656900,0,19L0,16C0,15.447700,0.447715,15,1,15C1.552280,15,2,15.447700,2,16L2,19C2,19.552300,2.447720,20,3,20L17,20C17.552300,20,18,19.552300,18,19L18,16C18,15.447700,18.447700,15,19,15ZM10,3C10.552300,3,11,3.447715,11,4L11,15.585000L13.292900,13.292900C13.653400,12.932410,14.220600,12.904680,14.612900,13.209700L14.707100,13.292900C15.097600,13.683400,15.097600,14.316600,14.707100,14.707100L10.707100,18.707100C10.678600,18.735600,10.648500,18.762300,10.616700,18.787200C10.609800,18.792700,10.602600,18.798200,10.595300,18.803700C10.571100,18.821500,10.546300,18.838300,10.520700,18.853900C10.508600,18.861400,10.496400,18.868500,10.484100,18.875300C10.464300,18.886200,10.443900,18.896600,10.423100,18.906300C10.406100,18.914300,10.388800,18.921800,10.371300,18.928800C10.351600,18.936700,10.331800,18.943900,10.311700,18.950500C10.296900,18.955300,10.281500,18.959900,10.266000,18.964200C10.244400,18.970200,10.222700,18.975400,10.200800,18.979800C10.183400,18.983300,10.165900,18.986400,10.148500,18.989000C10.100400,18.996200,10.050600,19,10,19L10.085200,18.996400C10.067900,18.997900,10.050600,18.998900,10.033200,18.999500L10,19C9.988870,19,9.977790,18.999800,9.966750,18.999500C9.949730,18.998900,9.931730,18.997800,9.913770,18.996300C9.892110,18.994500,9.871480,18.992000,9.851040,18.989000C9.834050,18.986400,9.816620,18.983300,9.799270,18.979800C9.777250,18.975400,9.755560,18.970200,9.734160,18.964300C9.718540,18.959900,9.703150,18.955300,9.687860,18.950300C9.668200,18.943900,9.648420,18.936700,9.628940,18.928900C9.611200,18.921800,9.593900,18.914300,9.576780,18.906300C9.556110,18.896600,9.535710,18.886200,9.515720,18.875100C9.503610,18.868500,9.491390,18.861400,9.479290,18.854000C9.453720,18.838300,9.428870,18.821500,9.404840,18.803700C9.365670,18.774700,9.328290,18.742500,9.292890,18.707100L9.383250,18.787200C9.351530,18.762300,9.321360,18.735600,9.292890,18.707100L5.292890,14.707100C4.902370,14.316600,4.902370,13.683400,5.292890,13.292900C5.683420,12.902370,6.316580,12.902370,6.707110,13.292900L9,15.585000L9,4C9,3.487164,9.386040,3.064493,9.883380,3.006728L10,3Z;M19,15C19.552300,15,20,15.447700,20,16L20,19C20,20.656900,18.656900,22,17,22L3,22C1.343150,22,0,20.656900,0,19L0,16C0,15.447700,0.447715,15,1,15C1.552280,15,2,15.447700,2,16L2,19C2,19.552300,2.447720,20,3,20L17,20C17.552300,20,18,19.552300,18,19L18,16C18,15.447700,18.447700,15,19,15ZM10,0C10.552300,0,11,0.447715,11,1L11,12.585000L13.292900,10.292900C13.653400,9.932410,14.220600,9.904680,14.612900,10.209700L14.707100,10.292900C15.097600,10.683400,15.097600,11.316600,14.707100,11.707100L10.707100,15.707100C10.678600,15.735600,10.648500,15.762300,10.616700,15.787200C10.609800,15.792700,10.602600,15.798200,10.595300,15.803700C10.571100,15.821500,10.546300,15.838300,10.520700,15.853900C10.508600,15.861400,10.496400,15.868500,10.484100,15.875300C10.464300,15.886200,10.443900,15.896600,10.423100,15.906300C10.406100,15.914300,10.388800,15.921800,10.371300,15.928800C10.351600,15.936700,10.331800,15.943900,10.311700,15.950500C10.296900,15.955300,10.281500,15.959900,10.266000,15.964200C10.244400,15.970200,10.222700,15.975400,10.200800,15.979800C10.183400,15.983300,10.165900,15.986400,10.148500,15.989000C10.100400,15.996200,10.050600,16,10,16L10.085200,15.996400C10.067900,15.997900,10.050600,15.998900,10.033200,15.999500L10,16C9.988870,16,9.977790,15.999800,9.966750,15.999500C9.949730,15.998900,9.931730,15.997800,9.913770,15.996300C9.892110,15.994500,9.871480,15.992000,9.851040,15.989000C9.834050,15.986400,9.816620,15.983300,9.799270,15.979800C9.777250,15.975400,9.755560,15.970200,9.734160,15.964300C9.718540,15.959900,9.703150,15.955300,9.687860,15.950300C9.668200,15.943900,9.648420,15.936700,9.628940,15.928900C9.611200,15.921800,9.593900,15.914300,9.576780,15.906300C9.556110,15.896600,9.535710,15.886200,9.515720,15.875100C9.503610,15.868500,9.491390,15.861400,9.479290,15.854000C9.453720,15.838300,9.428870,15.821500,9.404840,15.803700C9.365670,15.774700,9.328290,15.742500,9.292890,15.707100L9.383250,15.787200C9.351530,15.762300,9.321360,15.735600,9.292890,15.707100L5.292890,11.707100C4.902370,11.316600,4.902370,10.683400,5.292890,10.292900C5.683420,9.902370,6.316580,9.902370,6.707110,10.292900L9,12.585000L9,1C9,0.487164,9.386040,0.064493,9.883380,0.006728L10,0Z" dur="1.4s" repeatCount="1" /></path></svg>