<svg width="16" height="19" viewBox="0 0 16 19" fill="none" xmlns="http://www.w3.org/2000/svg">
<path fill-rule="evenodd" clip-rule="evenodd" d="M5.85157 3.22466C5.97865 3.18111 6.1058 3.13756 6.24703 3.07954L15.125 0L14.503 9.93578C14.3899 11.6789 13.6548 13.2478 12.4673 14.4098C11.6756 15.1651 10.7143 15.7462 9.6399 16.0367L0.875 19L1.38394 9.29665V9.18047C1.55355 6.50763 3.19344 4.29971 5.45535 3.37006C5.59686 3.3119 5.72422 3.26828 5.85157 3.22466ZM6.30357 5.63607C4.83334 6.27527 3.75892 7.66971 3.64585 9.41283V9.47099L3.30658 15.7462L8.96135 13.8288C9.6399 13.6545 10.2619 13.2478 10.7709 12.7829C11.506 12.0275 12.0149 11.0398 12.0715 9.87769L12.5238 3.48624L6.81251 5.4618L6.30357 5.63607ZM7.09525 10.7493C6.52977 10.2263 6.52977 9.35474 7.03872 8.83186C7.26492 8.54134 7.66073 8.367 8.00007 8.367C8.33934 8.367 8.62208 8.54134 8.90482 8.7737C9.4703 9.29665 9.4703 10.1682 8.96135 10.6912C8.45241 11.2722 7.60419 11.2722 7.09525 10.7493Z" fill="#69B3F3"/>
</svg>
