<svg xmlns="http://www.w3.org/2000/svg" xmlns:xlink="http://www.w3.org/1999/xlink"  viewBox="0 0 15 15"><defs><path id="wo28a" d="M1247.5 231.679a1.071 1.071 0 1 0 0 2.142 1.071 1.071 0 0 0 0-2.142zm-1.607 8.437v.268c0 .222.18.402.403.402h2.418c.223 0 .403-.18.403-.402v-.268a.402.402 0 0 0-.403-.402h-.403v-4.687a.402.402 0 0 0-.403-.402h-1.612a.402.402 0 0 0-.403.402v.268c0 .222.18.401.403.401h.403v4.018h-.403a.402.402 0 0 0-.403.402zm8.036 2.277c0 .295-.24.536-.536.536h-11.786a.536.536 0 0 1-.536-.536v-11.786c0-.295.24-.536.536-.536h11.786c.295 0 .536.24.536.536zm-.536-13.393h-11.786c-.887 0-1.607.72-1.607 1.607v11.786c0 .887.72 1.607 1.607 1.607h11.786c.887 0 1.607-.72 1.607-1.607v-11.786c0-.887-.72-1.607-1.607-1.607z"/></defs><g><g transform="translate(-1240 -229)"><use fill="#2e363f" xlink:href="#wo28a"/></g></g></svg>